# xmcd
# 
# Track frame offsets:
#     150
#     28168
#     47429
#     62166
#     82539
#     99582
#     115204
#     131993
#     148750
#     166740
#     184518
# 
# Disc length: 2670
# 
# Revision: 2
# Processed by: cddbd v1.5.2PL0 Copyright (c) Steve Scherf et al.
# Submitted via: fre:ac v1.0.31
# 
DISCID=8c0a6c0b
DTITLE=Mercury Rev - The Light In You
DYEAR=2015
DGENRE=Alternative
TTITLE0=The Queen of Swans
TTITLE1=Amelie
TTITLE2=You've Gone With So Little for So Long
TTITLE3=Central Park East
TTITLE4=Emotional Free Fall
TTITLE5=Coming Up for Air
TTITLE6=Autumn's in the Air
TTITLE7=Are You Ready
TTITLE8=Sunflower
TTITLE9=Moth Light
TTITLE10=Rainy Day Record
EXTD=
EXTT0=
EXTT1=
EXTT2=
EXTT3=
EXTT4=
EXTT5=
EXTT6=
EXTT7=
EXTT8=
EXTT9=
EXTT10=
PLAYORDER=
